<?xml version="1.0" encoding="UTF-8"?>
<svg width="560px" height="1120px" viewBox="0 0 560 1120" version="1.1" xmlns="http://www.w3.org/2000/svg" xmlns:xlink="http://www.w3.org/1999/xlink">
    <!-- Generator: Sketch 49 (51002) - http://www.bohemiancoding.com/sketch -->
    <title>pattern</title>
    <desc>Created with Sketch.</desc>
    <defs></defs>
    <g id="pattern" stroke="none" stroke-width="1" fill="none" fill-rule="evenodd" opacity="0.199999988">
        <rect id="Rectangle-3" stroke="#000000" stroke-width="7" transform="translate(70.500000, 70.500000) rotate(10.000000) translate(-70.500000, -70.500000) " x="44.5" y="44.5" width="52" height="52" rx="5"></rect>
        <rect id="Rectangle-3-Copy-3" stroke="#000000" stroke-width="7" transform="translate(346.000000, 66.000000) rotate(-10.000000) translate(-346.000000, -66.000000) " x="324.5" y="44.5" width="43" height="43" rx="5"></rect>
        <rect id="Rectangle-3-Copy-2" stroke="#000000" stroke-width="7" transform="translate(211.500000, 559.500000) rotate(10.000000) translate(-211.500000, -559.500000) " x="185.5" y="533.5" width="52" height="52" rx="5"></rect>
        <path d="M76.7609903,328.521981 L95.9347524,366.869505 C97.6636772,370.327354 96.2621067,374.532066 92.8042572,376.26099 C91.8322692,376.746984 90.7604777,377 89.6737621,377 L51.3262379,377 C47.4602447,377 44.3262379,373.865993 44.3262379,370 C44.3262379,368.913284 44.5792536,367.841493 45.0652476,366.869505 L64.2390097,328.521981 C65.9679344,325.064131 70.1726457,323.662561 73.6304952,325.391486 C74.985187,326.068831 76.0836444,327.167289 76.7609903,328.521981 Z" id="Triangle-2" stroke="#000000" stroke-width="7" stroke-linejoin="round" transform="translate(70.500000, 346.500000) rotate(10.000000) translate(-70.500000, -346.500000) "></path>
        <path d="M357.76099,328.521981 L376.934752,366.869505 C378.663677,370.327354 377.262107,374.532066 373.804257,376.26099 C372.832269,376.746984 371.760478,377 370.673762,377 L332.326238,377 C328.460245,377 325.326238,373.865993 325.326238,370 C325.326238,368.913284 325.579254,367.841493 326.065248,366.869505 L345.23901,328.521981 C346.967934,325.064131 351.172646,323.662561 354.630495,325.391486 C355.985187,326.068831 357.083644,327.167289 357.76099,328.521981 Z" id="Triangle-2-Copy-4" stroke="#000000" stroke-width="7" stroke-linejoin="round" transform="translate(351.500000, 346.500000) rotate(-10.000000) translate(-351.500000, -346.500000) "></path>
        <path d="M216.76099,116.521981 L235.934752,154.869505 C237.663677,158.327354 236.262107,162.532066 232.804257,164.26099 C231.832269,164.746984 230.760478,165 229.673762,165 L191.326238,165 C187.460245,165 184.326238,161.865993 184.326238,158 C184.326238,156.913284 184.579254,155.841493 185.065248,154.869505 L204.23901,116.521981 C205.967934,113.064131 210.172646,111.662561 213.630495,113.391486 C214.985187,114.068831 216.083644,115.167289 216.76099,116.521981 Z" id="Triangle-2-Copy-2" stroke="#000000" stroke-width="7" stroke-linejoin="round" transform="translate(210.500000, 134.500000) rotate(10.000000) translate(-210.500000, -134.500000) "></path>
        <path d="M76.7609903,888.521981 L95.9347524,926.869505 C97.6636772,930.327354 96.2621067,934.532066 92.8042572,936.26099 C91.8322692,936.746984 90.7604777,937 89.6737621,937 L51.3262379,937 C47.4602447,937 44.3262379,933.865993 44.3262379,930 C44.3262379,928.913284 44.5792536,927.841493 45.0652476,926.869505 L64.2390097,888.521981 C65.9679344,885.064131 70.1726457,883.662561 73.6304952,885.391486 C74.985187,886.068831 76.0836444,887.167289 76.7609903,888.521981 Z" id="Triangle-2-Copy" stroke="#000000" stroke-width="7" stroke-linejoin="round" transform="translate(70.500000, 906.500000) rotate(10.000000) translate(-70.500000, -906.500000) "></path>
        <path d="M357.76099,887.521981 L376.934752,925.869505 C378.663677,929.327354 377.262107,933.532066 373.804257,935.26099 C372.832269,935.746984 371.760478,936 370.673762,936 L332.326238,936 C328.460245,936 325.326238,932.865993 325.326238,929 C325.326238,927.913284 325.579254,926.841493 326.065248,925.869505 L345.23901,887.521981 C346.967934,884.064131 351.172646,882.662561 354.630495,884.391486 C355.985187,885.068831 357.083644,886.167289 357.76099,887.521981 Z" id="Triangle-2-Copy-6" stroke="#000000" stroke-width="7" stroke-linejoin="round" transform="translate(351.500000, 905.500000) rotate(-10.000000) translate(-351.500000, -905.500000) "></path>
        <path d="" id="Path-2" stroke="#979797"></path>
        <path d="" id="Path-2-Copy-2" stroke="#979797"></path>
        <path d="M83,174 L69.6295061,187.315058 C63.7594853,193.16074 63.7397554,202.658194 69.585438,208.528215 C69.6000969,208.542935 69.6147863,208.557624 69.6295061,208.572283 L72.4357427,211.366885 C78.3057635,217.212567 78.3254934,226.710022 72.4798108,232.580042 C72.4651519,232.594762 72.4504625,232.609452 72.4357427,232.62411 L58,247" id="Path-3" stroke="#000000" stroke-width="7" stroke-linecap="round" stroke-linejoin="round" transform="translate(70.500000, 210.500000) rotate(25.000000) translate(-70.500000, -210.500000) "></path>
        <path d="M362,175 L348.629506,188.315058 C342.759485,194.16074 342.739755,203.658194 348.585438,209.528215 C348.600097,209.542935 348.614786,209.557624 348.629506,209.572283 L351.435743,212.366885 C357.305763,218.212567 357.325493,227.710022 351.479811,233.580042 C351.465152,233.594762 351.450463,233.609452 351.435743,233.62411 L337,248" id="Path-3-Copy-4" stroke="#000000" stroke-width="7" stroke-linecap="round" stroke-linejoin="round" transform="translate(349.500000, 211.500000) rotate(-65.000000) translate(-349.500000, -211.500000) "></path>
        <path d="M82,1015 L68.6295061,1028.31506 C62.7594853,1034.16074 62.7397554,1043.65819 68.585438,1049.52822 C68.6000969,1049.54294 68.6147863,1049.55762 68.6295061,1049.57228 L71.4357427,1052.36688 C77.3057635,1058.21257 77.3254934,1067.71002 71.4798108,1073.58004 C71.4651519,1073.59476 71.4504625,1073.60945 71.4357427,1073.62411 L57,1088" id="Path-3-Copy-2" stroke="#000000" stroke-width="7" stroke-linecap="round" stroke-linejoin="round" transform="translate(69.500000, 1051.500000) rotate(25.000000) translate(-69.500000, -1051.500000) "></path>
        <path d="M363,1015 L349.629506,1028.31506 C343.759485,1034.16074 343.739755,1043.65819 349.585438,1049.52822 C349.600097,1049.54294 349.614786,1049.55762 349.629506,1049.57228 L352.435743,1052.36688 C358.305763,1058.21257 358.325493,1067.71002 352.479811,1073.58004 C352.465152,1073.59476 352.450463,1073.60945 352.435743,1073.62411 L338,1088" id="Path-3-Copy-5" stroke="#000000" stroke-width="7" stroke-linecap="round" stroke-linejoin="round" transform="translate(350.500000, 1051.500000) rotate(-65.000000) translate(-350.500000, -1051.500000) "></path>
        <circle id="Oval-2" stroke="#000000" stroke-width="7" cx="70.5" cy="490.5" r="26.5"></circle>
        <circle id="Oval-2-Copy-3" stroke="#000000" stroke-width="7" cx="351.5" cy="490.5" r="26.5"></circle>
        <circle id="Oval-2-Copy-2" stroke="#000000" stroke-width="7" cx="210.5" cy="280.5" r="26.5"></circle>
        <circle id="Oval-2-Copy-7" stroke="#000000" stroke-width="7" cx="210.5" cy="0.5" r="26.5"></circle>
        <circle id="Oval-2-Copy" stroke="#000000" stroke-width="7" cx="70.5" cy="771.5" r="26.5"></circle>
        <circle id="Oval-2-Copy-5" stroke="#000000" stroke-width="7" cx="351.5" cy="770.5" r="26.5"></circle>
        <path d="M82,594 L68.6295061,607.315058 C62.7594853,613.16074 62.7397554,622.658194 68.585438,628.528215 C68.6000969,628.542935 68.6147863,628.557624 68.6295061,628.572283 L71.4357427,631.366885 C77.3057635,637.212567 77.3254934,646.710022 71.4798108,652.580042 C71.4651519,652.594762 71.4504625,652.609452 71.4357427,652.62411 L57,667" id="Path-3-Copy" stroke="#000000" stroke-width="7" stroke-linecap="round" stroke-linejoin="round" transform="translate(69.500000, 630.500000) rotate(25.000000) translate(-69.500000, -630.500000) "></path>
        <path d="M363,594 L349.629506,607.315058 C343.759485,613.16074 343.739755,622.658194 349.585438,628.528215 C349.600097,628.542935 349.614786,628.557624 349.629506,628.572283 L352.435743,631.366885 C358.305763,637.212567 358.325493,646.710022 352.479811,652.580042 C352.465152,652.594762 352.450463,652.609452 352.435743,652.62411 L338,667" id="Path-3-Copy-6" stroke="#000000" stroke-width="7" stroke-linecap="round" stroke-linejoin="round" transform="translate(350.500000, 630.500000) rotate(-65.000000) translate(-350.500000, -630.500000) "></path>
        <path d="M223,384 L209.629506,397.315058 C203.759485,403.16074 203.739755,412.658194 209.585438,418.528215 C209.600097,418.542935 209.614786,418.557624 209.629506,418.572283 L212.435743,421.366885 C218.305763,427.212567 218.325493,436.710022 212.479811,442.580042 C212.465152,442.594762 212.450463,442.609452 212.435743,442.62411 L198,457" id="Path-3-Copy-3" stroke="#000000" stroke-width="7" stroke-linecap="round" stroke-linejoin="round" transform="translate(210.500000, 420.500000) rotate(-65.000000) translate(-210.500000, -420.500000) "></path>
        <rect id="Rectangle-3-Copy-2" stroke="#000000" stroke-width="7" transform="translate(211.500000, 979.500000) rotate(-10.000000) translate(-211.500000, -979.500000) " x="185.5" y="953.5" width="52" height="52" rx="5"></rect>
        <path d="M217.76099,677.521981 L236.934752,715.869505 C238.663677,719.327354 237.262107,723.532066 233.804257,725.26099 C232.832269,725.746984 231.760478,726 230.673762,726 L192.326238,726 C188.460245,726 185.326238,722.865993 185.326238,719 C185.326238,717.913284 185.579254,716.841493 186.065248,715.869505 L205.23901,677.521981 C206.967934,674.064131 211.172646,672.662561 214.630495,674.391486 C215.985187,675.068831 217.083644,676.167289 217.76099,677.521981 Z" id="Triangle-2-Copy-2" stroke="#000000" stroke-width="7" stroke-linejoin="round" transform="translate(211.500000, 695.500000) rotate(-10.000000) translate(-211.500000, -695.500000) "></path>
        <path d="M223,804 L209.629506,817.315058 C203.759485,823.16074 203.739755,832.658194 209.585438,838.528215 C209.600097,838.542935 209.614786,838.557624 209.629506,838.572283 L212.435743,841.366885 C218.305763,847.212567 218.325493,856.710022 212.479811,862.580042 C212.465152,862.594762 212.450463,862.609452 212.435743,862.62411 L198,877" id="Path-3-Copy-3" stroke="#000000" stroke-width="7" stroke-linecap="round" stroke-linejoin="round" transform="translate(210.500000, 840.500000) rotate(-65.000000) translate(-210.500000, -840.500000) "></path>
        <circle id="Oval-2-Copy-2" stroke="#000000" stroke-width="7" cx="210.5" cy="1119.5" r="26.5"></circle>
        <rect id="Rectangle-3-Copy-2" stroke="#000000" stroke-width="7" transform="translate(491.500000, 561.500000) rotate(-10.000000) translate(-491.500000, -561.500000) " x="465.5" y="535.5" width="52" height="52" rx="5"></rect>
        <path d="M496.76099,118.521981 L515.934752,156.869505 C517.663677,160.327354 516.262107,164.532066 512.804257,166.26099 C511.832269,166.746984 510.760478,167 509.673762,167 L471.326238,167 C467.460245,167 464.326238,163.865993 464.326238,160 C464.326238,158.913284 464.579254,157.841493 465.065248,156.869505 L484.23901,118.521981 C485.967934,115.064131 490.172646,113.662561 493.630495,115.391486 C494.985187,116.068831 496.083644,117.167289 496.76099,118.521981 Z" id="Triangle-2-Copy-2" stroke="#000000" stroke-width="7" stroke-linejoin="round" transform="translate(490.500000, 136.500000) rotate(-10.000000) translate(-490.500000, -136.500000) "></path>
        <circle id="Oval-2-Copy-2" stroke="#000000" stroke-width="7" cx="490.5" cy="282.5" r="26.5"></circle>
        <circle id="Oval-2-Copy-7" stroke="#000000" stroke-width="7" cx="490.5" cy="2.5" r="26.5"></circle>
        <path d="M503,386 L489.629506,399.315058 C483.759485,405.16074 483.739755,414.658194 489.585438,420.528215 C489.600097,420.542935 489.614786,420.557624 489.629506,420.572283 L492.435743,423.366885 C498.305763,429.212567 498.325493,438.710022 492.479811,444.580042 C492.465152,444.594762 492.450463,444.609452 492.435743,444.62411 L478,459" id="Path-3-Copy-3" stroke="#000000" stroke-width="7" stroke-linecap="round" stroke-linejoin="round" transform="translate(490.500000, 422.500000) rotate(25.000000) translate(-490.500000, -422.500000) "></path>
        <rect id="Rectangle-3-Copy-2" stroke="#000000" stroke-width="7" transform="translate(491.500000, 981.500000) rotate(10.000000) translate(-491.500000, -981.500000) " x="465.5" y="955.5" width="52" height="52" rx="5"></rect>
        <path d="M497.76099,679.521981 L516.934752,717.869505 C518.663677,721.327354 517.262107,725.532066 513.804257,727.26099 C512.832269,727.746984 511.760478,728 510.673762,728 L472.326238,728 C468.460245,728 465.326238,724.865993 465.326238,721 C465.326238,719.913284 465.579254,718.841493 466.065248,717.869505 L485.23901,679.521981 C486.967934,676.064131 491.172646,674.662561 494.630495,676.391486 C495.985187,677.068831 497.083644,678.167289 497.76099,679.521981 Z" id="Triangle-2-Copy-2" stroke="#000000" stroke-width="7" stroke-linejoin="round" transform="translate(491.500000, 697.500000) rotate(10.000000) translate(-491.500000, -697.500000) "></path>
        <path d="M503,806 L489.629506,819.315058 C483.759485,825.16074 483.739755,834.658194 489.585438,840.528215 C489.600097,840.542935 489.614786,840.557624 489.629506,840.572283 L492.435743,843.366885 C498.305763,849.212567 498.325493,858.710022 492.479811,864.580042 C492.465152,864.594762 492.450463,864.609452 492.435743,864.62411 L478,879" id="Path-3-Copy-3" stroke="#000000" stroke-width="7" stroke-linecap="round" stroke-linejoin="round" transform="translate(490.500000, 842.500000) rotate(25.000000) translate(-490.500000, -842.500000) "></path>
        <circle id="Oval-2-Copy-2" stroke="#000000" stroke-width="7" cx="490.5" cy="1121.5" r="26.5"></circle>
    </g>
</svg>